<?xml version="1.0" encoding="UTF-8"?> <svg xmlns="http://www.w3.org/2000/svg" preserveAspectRatio="xMidYMid slice" width="850px" height="540px" id="Layer_1" data-name="Layer 1" viewBox="0 0 1600 1016.9"><title>fetal-adult_1</title><path d="M678.6,24.3h5V53.7h-5V41.1H666V53.7h-5V24.3h5v12h12.6Z" fill="#556087"></path><path d="M707.5,43.7c0,.4,0,1.1,0,1.9H692.6a5.7,5.7,0,0,0,5.6,4,8,8,0,0,0,5.5-2l2.5,3.8a12.8,12.8,0,0,1-8,2.9,10.5,10.5,0,0,1-10.7-10.5c0-5.8,4.2-10.5,10-10.5A10,10,0,0,1,707.5,43.7Zm-5-1.8c-.1-1.7-1.7-4-5-4a4.6,4.6,0,0,0-4.9,4Z" fill="#556087"></path><path d="M740.9,40.9V53.7h-5V42.2c0-2.7-1.1-4.2-3.6-4.2a4.7,4.7,0,0,0-3.9,2.6V53.7h-5V42.2c0-2.7-1-4.2-3.6-4.2a4.7,4.7,0,0,0-3.9,2.6V53.7h-5V33.8h4.7v2.9a6.9,6.9,0,0,1,5.9-3.4c4.8,0,6.2,3.5,6.2,3.5a7,7,0,0,1,6.3-3.5C737.9,33.3,740.9,36.1,740.9,40.9Z" fill="#556087"></path><path d="M765.4,43.8a10.6,10.6,0,1,1-10.6-10.5A10.5,10.5,0,0,1,765.4,43.8Zm-5.1,0a5.5,5.5,0,1,0-11,0,5.5,5.5,0,1,0,11,0Z" fill="#556087"></path><path d="M777,54.2c-5.2,0-9.7-4.3-9.7-10.5s4.5-10.5,9.7-10.5a7.1,7.1,0,0,1,6,3.1V33.8h4.7V53.9c0,6.9-5.1,10-10.7,10a14.3,14.3,0,0,1-9.5-3.8l2.9-3.9a10.1,10.1,0,0,0,6.6,2.9c3.9,0,5.7-2.1,5.7-5.1V51.7A7.1,7.1,0,0,1,777,54.2Zm5.6-13.4a5.5,5.5,0,0,0-4.7-2.8c-3.4,0-5.5,2.5-5.5,5.8s2.1,5.8,5.5,5.8a5.6,5.6,0,0,0,4.7-2.8Z" fill="#556087"></path><path d="M792.9,22h5V53.7h-5Z" fill="#556087"></path><path d="M823.1,43.8a10.6,10.6,0,1,1-10.6-10.5A10.5,10.5,0,0,1,823.1,43.8Zm-5.1,0a5.5,5.5,0,1,0-11,0,5.5,5.5,0,1,0,11,0Z" fill="#556087"></path><path d="M826.9,22h5V35.9a7.1,7.1,0,0,1,5.6-2.6c5.2,0,9.7,4.3,9.7,10.5s-4.5,10.5-9.7,10.5a6.9,6.9,0,0,1-6-3.1v2.6h-4.7Zm5,24.8a5.5,5.5,0,0,0,4.7,2.8c3.4,0,5.5-2.5,5.5-5.8s-2.1-5.8-5.5-5.8a5.5,5.5,0,0,0-4.7,2.8Z" fill="#556087"></path><path d="M853.9,24.1a3.3,3.3,0,1,1-3.3,3.3A3.3,3.3,0,0,1,853.9,24.1Zm-2.5,9.7h5V53.7h-5Z" fill="#556087"></path><path d="M879.8,40.8V53.7h-5V42.1c0-2.9-1.8-4.1-3.9-4.1s-3.9,2.6-3.9,2.6V53.7h-5V33.8h4.7v2.9a6.9,6.9,0,0,1,6-3.4A7.1,7.1,0,0,1,879.8,40.8Z" fill="#556087"></path><path d="M906.3,41.5c-4.3-1.5-9.2-3.9-9.2-9.3s3.7-8.3,9.6-8.3a12.6,12.6,0,0,1,9.6,4.7l-3.5,3.4s-2.4-3.3-6.1-3.3-4.5,1.6-4.5,3.5,2.3,3.4,6.3,4.9,8.2,3.7,8.2,9-4.7,8.2-10.2,8.2a12.9,12.9,0,0,1-10.8-6l3.8-3.2s2.5,4.4,7,4.4c2.5,0,5.1-1,5.1-3.4S909.8,42.7,906.3,41.5Z" fill="#556087"></path><path d="M924.2,33.8,928.3,44l4.3-10.2h4.2L941.1,44l4.3-10.2h5.1l-9.6,20.9-6.4-14.2-6.3,14.2-9.6-20.9Z" fill="#556087"></path><path d="M956.1,24.1a3.3,3.3,0,1,1-3.3,3.3A3.3,3.3,0,0,1,956.1,24.1Zm-2.5,9.7h5V53.7h-5Z" fill="#556087"></path><path d="M962.4,33.8h3.9V27.9h5v5.9h6v4.5h-6v8c0,2.4,1.3,3.2,2.6,3.2a4,4,0,0,0,2.1-.7l1.8,4.1a9.1,9.1,0,0,1-4.8,1.3,6.7,6.7,0,0,1-6.8-7.1V38.4h-3.9Z" fill="#556087"></path><path d="M995.4,47.1l3.3,3.4a10.8,10.8,0,0,1-8.2,3.8,10.5,10.5,0,1,1,0-20.9,10.7,10.7,0,0,1,8.2,3.7l-3.5,3.1a6.2,6.2,0,0,0-4.7-2.1,5.5,5.5,0,0,0-5.6,5.8,5.5,5.5,0,0,0,5.6,5.8A5.9,5.9,0,0,0,995.4,47.1Z" fill="#556087"></path><path d="M1020.1,40.8V53.7h-5V42.1c0-2.9-1.8-4.1-3.9-4.1s-3.9,2.6-3.9,2.6V53.7h-5V22h5V36.2a6.8,6.8,0,0,1,5.6-2.9A7.1,7.1,0,0,1,1020.1,40.8Z" fill="#556087"></path><path d="M1028,24.1a3.3,3.3,0,1,1-3.3,3.3A3.3,3.3,0,0,1,1028,24.1Zm-2.5,9.7h5V53.7h-5Z" fill="#556087"></path><path d="M1054,40.8V53.7h-5V42.1c0-2.9-1.8-4.1-3.9-4.1s-3.9,2.6-3.9,2.6V53.7h-5V33.8h4.7v2.9a6.9,6.9,0,0,1,6-3.4A7.1,7.1,0,0,1,1054,40.8Z" fill="#556087"></path><path d="M1066.9,54.2c-5.2,0-9.7-4.3-9.7-10.5s4.5-10.5,9.7-10.5a7.1,7.1,0,0,1,6,3.1V33.8h4.7V53.9c0,6.9-5.1,10-10.7,10a14.3,14.3,0,0,1-9.5-3.8l2.9-3.9a10.1,10.1,0,0,0,6.6,2.9c3.9,0,5.7-2.1,5.7-5.1V51.7A7.1,7.1,0,0,1,1066.9,54.2Zm5.6-13.4a5.5,5.5,0,0,0-4.7-2.8c-3.4,0-5.5,2.5-5.5,5.8s2.1,5.8,5.5,5.8a5.6,5.6,0,0,0,4.7-2.8Z" fill="#556087"></path><path d="M177.2,117.2h2.1v19.6h-2.4V120.3l-3.8,3-1.4-1.8Z" fill="#545852"></path><path d="M198,127c0,5.2-2.1,10.1-7.1,10.1s-7.1-4.9-7.1-10.1,2.2-10.1,7.1-10.1S198,121.8,198,127Zm-2.4,0c0-3.8-1.3-8-4.7-8s-4.8,4.1-4.8,8,1.3,8,4.8,8S195.7,130.8,195.7,127Z" fill="#545852"></path><path d="M214.6,127c0,5.2-2.1,10.1-7.1,10.1s-7.1-4.9-7.1-10.1,2.2-10.1,7.1-10.1S214.6,121.8,214.6,127Zm-2.4,0c0-3.8-1.3-8-4.7-8s-4.8,4.1-4.8,8,1.3,8,4.8,8S212.2,130.8,212.2,127Z" fill="#545852"></path><path d="M190.3,414.8a3.6,3.6,0,0,1,1.4-.3,6.2,6.2,0,0,1,6.4,6.4,6.4,6.4,0,1,1-12.8.1,7.8,7.8,0,0,1,1-3.5l6.4-10.7,1.9,1.2Zm-2.7,6.1a4.1,4.1,0,1,0,8.1,0,4.1,4.1,0,1,0-8.1,0Z" fill="#545852"></path><path d="M214.6,417.3c0,5.2-2.1,10.1-7.1,10.1s-7.1-4.9-7.1-10.1,2.2-10.1,7.1-10.1S214.6,412.1,214.6,417.3Zm-2.4,0c0-3.8-1.3-8-4.7-8s-4.8,4.1-4.8,8,1.3,8,4.8,8S212.2,421.1,212.2,417.3Z" fill="#545852"></path><path d="M192.6,708.3c.7-1,2.5-2.9,2.5-5.1a3.4,3.4,0,0,0-3.6-3.6,4.1,4.1,0,0,0-3.9,3l-2-.8a6.1,6.1,0,0,1,5.9-4.4,5.6,5.6,0,0,1,6,5.7,8.4,8.4,0,0,1-2,5.1l-5.2,6.9h7.4v2.2H185.8Z" fill="#545852"></path><path d="M214.6,707.6c0,5.2-2.1,10.1-7.1,10.1s-7.1-4.9-7.1-10.1,2.2-10.1,7.1-10.1S214.6,702.4,214.6,707.6Zm-2.4,0c0-3.8-1.3-8-4.7-8s-4.8,4.1-4.8,8,1.3,8,4.8,8S212.2,711.5,212.2,707.6Z" fill="#545852"></path><path d="M214.6,852.8c0,5.2-2.1,10.1-7.1,10.1s-7.1-4.9-7.1-10.1,2.2-10.1,7.1-10.1S214.6,847.6,214.6,852.8Zm-2.4,0c0-3.8-1.3-8-4.7-8s-4.8,4.1-4.8,8,1.3,8,4.8,8S212.2,856.6,212.2,852.8Z" fill="#545852"></path><path d="M232.2,908.4h7.5v2.2h-7.5Z" fill="#545852"></path><path d="M249.6,909a2.4,2.4,0,0,1-1.4.3,6.2,6.2,0,0,1-6.4-6.4,6.4,6.4,0,1,1,12.8,0,6.8,6.8,0,0,1-.8,3.1c-.4.8-6.5,11-6.5,11l-1.9-1.2Zm2.6-6a4.1,4.1,0,1,0-8.1,0,4.1,4.1,0,1,0,8.1,0Z" fill="#545852"></path><path d="M474,908.4h7.5v2.2H474Z" fill="#545852"></path><path d="M488.6,904a3.6,3.6,0,0,1,1.4-.3,6.2,6.2,0,0,1,6.4,6.4,6.4,6.4,0,1,1-12.8.1,7.8,7.8,0,0,1,1-3.5l6.4-10.7,1.9,1.2Zm-2.7,6.1a4.1,4.1,0,1,0,8.1,0,4.1,4.1,0,1,0-8.1,0Z" fill="#545852"></path><path d="M715.7,908.4h7.5v2.2h-7.5Z" fill="#545852"></path><path d="M731.5,898.6a3.9,3.9,0,0,0-3.7,2.5l-2-.9a6.1,6.1,0,0,1,5.7-3.8,5.7,5.7,0,0,1,5.9,5.5,4.6,4.6,0,0,1-2.4,4.3s2.9.8,2.9,4.8-2.8,5.7-6.4,5.7a6.5,6.5,0,0,1-6.3-4.5l2.1-1a4.4,4.4,0,0,0,4.2,3.2c2.5,0,4-1.7,4-3.6s-1.3-3.5-4.1-3.5h-.9v-2.2h.6c2.2,0,4-1.1,4-3.3A3.4,3.4,0,0,0,731.5,898.6Z" fill="#545852"></path><path d="M975.9,906.6c0,5.2-2.1,10.1-7.1,10.1s-7.1-4.9-7.1-10.1,2.2-10.1,7.1-10.1S975.9,901.3,975.9,906.6Zm-2.4,0c0-3.8-1.3-8-4.7-8s-4.8,4.1-4.8,8,1.3,8,4.8,8S973.5,910.4,973.5,906.6Z" fill="#545852"></path><path d="M1210.2,898.6a3.9,3.9,0,0,0-3.7,2.5l-2-.9a6.1,6.1,0,0,1,5.7-3.8,5.7,5.7,0,0,1,5.9,5.5,4.6,4.6,0,0,1-2.4,4.3s2.9.8,2.9,4.8-2.8,5.7-6.4,5.7a6.5,6.5,0,0,1-6.3-4.5l2.1-1a4.4,4.4,0,0,0,4.2,3.2c2.5,0,4-1.7,4-3.6s-1.3-3.5-4.1-3.5h-.9v-2.2h.6c2.2,0,4-1.1,4-3.3A3.4,3.4,0,0,0,1210.2,898.6Z" fill="#545852"></path><path d="M744.9,960.2l6.7,10.9,6.7-10.9h2.3v19.6h-2.4V964.5l-6.7,10.9-6.7-10.9v15.3h-2.4V960.2Z" fill="#535751"></path><path d="M777.2,973.4a6.7,6.7,0,1,1-6.7-6.8A6.6,6.6,0,0,1,777.2,973.4Zm-2.4,0a4.3,4.3,0,1,0-4.3,4.6A4.3,4.3,0,0,0,774.8,973.4Z" fill="#535751"></path><path d="M790.9,971.5v8.3h-2.4v-7.9a2.9,2.9,0,0,0-3.1-3.2c-2.1,0-3.2,2.2-3.2,2.2v8.9h-2.4V966.9H782v1.8a4.6,4.6,0,0,1,4-2.2A4.7,4.7,0,0,1,790.9,971.5Z" fill="#535751"></path><path d="M793.3,966.9h2.5v-3.9h2.4v3.9h4V969h-4v7a1.7,1.7,0,0,0,1.9,2,3.1,3.1,0,0,0,1.5-.5l.9,1.9a5.3,5.3,0,0,1-2.7.8,3.8,3.8,0,0,1-3.9-4.1V969h-2.5Z" fill="#535751"></path><path d="M816.5,971.5v8.3h-2.4v-7.9a2.9,2.9,0,0,0-3.1-3.2c-2.1,0-3.2,2.2-3.2,2.2v8.9h-2.4V958.7h2.4v9.8a4.6,4.6,0,0,1,3.8-1.9A4.7,4.7,0,0,1,816.5,971.5Z" fill="#535751"></path><path d="M820.9,975.9a5,5,0,0,0,3.9,2.1c1.3,0,2.8-.6,2.8-1.6s-1-1.7-2.9-2.1-4.7-1.7-4.7-4.1,1.9-3.7,4.8-3.7a6.7,6.7,0,0,1,4.8,2l-1.5,1.6a4.8,4.8,0,0,0-3.2-1.4c-1.7,0-2.5.8-2.5,1.7s1,1.5,3.1,2,4.6,1.5,4.6,4.1-2.6,3.8-5.1,3.8a7.1,7.1,0,0,1-5.5-2.7Z" fill="#535751"></path><path d="M851.4,971.3v8.5h-2.2v-1.9a5.5,5.5,0,0,1-4.4,2.2,4.6,4.6,0,0,1-4.8-4.4c0-2.5,2.2-4.3,5.1-4.3a7.2,7.2,0,0,1,3.9,1.1v-.7a2.9,2.9,0,0,0-3.3-3.1,9,9,0,0,0-3.9,1.1l-1-2a9.6,9.6,0,0,1,4.8-1.3C849.6,966.6,851.4,968.9,851.4,971.3Zm-2.4,4.8v-1.8a6.2,6.2,0,0,0-3.4-.9c-2,0-3.3,1-3.3,2.4s1.5,2.4,3,2.4A5,5,0,0,0,849.1,976.1Z" fill="#535751"></path><path d="M853.8,966.9h2.7v-4.5a4,4,0,0,1,4-4.1,5.3,5.3,0,0,1,2.7.8l-.9,1.9a3.3,3.3,0,0,0-1.5-.5,1.9,1.9,0,0,0-2,2.1v4.3h3.4V969h-3.4v10.8h-2.4V969h-2.7Z" fill="#535751"></path><path d="M863.5,966.9H866v-3.9h2.4v3.9h4V969h-4v7a1.7,1.7,0,0,0,1.9,2,3.1,3.1,0,0,0,1.5-.5l.9,1.9a5.3,5.3,0,0,1-2.7.8,3.8,3.8,0,0,1-3.9-4.1V969h-2.5Z" fill="#535751"></path><path d="M887,973.4a7.2,7.2,0,0,1,0,.8H876.6A4.4,4.4,0,0,0,881,978a5,5,0,0,0,3.9-1.9l1.5,1.5a7.2,7.2,0,0,1-5.4,2.5,6.6,6.6,0,0,1-6.7-6.8c0-3.8,2.6-6.8,6.5-6.8S887,969.3,887,973.4Zm-2.3-1.2a3.9,3.9,0,0,0-4-3.5,4,4,0,0,0-4.1,3.5Z" fill="#535751"></path><path d="M897.4,966.9l-.9,2.1a3.3,3.3,0,0,0-1.5-.3c-2,0-3,2.2-3,2.2v8.9h-2.4V966.9h2.2v2a4.3,4.3,0,0,1,3.6-2.3A5.4,5.4,0,0,1,897.4,966.9Z" fill="#535751"></path><path d="M920.4,973.4a6.5,6.5,0,0,1-6.3,6.8,5,5,0,0,1-4.4-2.2v1.9h-2.2V958.7h2.4v9.8a5.1,5.1,0,0,1,4.2-1.9A6.5,6.5,0,0,1,920.4,973.4Zm-10.4,2.4a4.6,4.6,0,0,0,3.8,2.2,4.6,4.6,0,0,0,0-9.2,4.6,4.6,0,0,0-3.8,2.2Z" fill="#535751"></path><path d="M924.7,961.2a1.6,1.6,0,1,1-1.6,1.6A1.6,1.6,0,0,1,924.7,961.2Zm-1.2,5.7h2.4v12.9h-2.4Z" fill="#535751"></path><path d="M937.5,966.9l-.9,2.1a3.3,3.3,0,0,0-1.5-.3c-2,0-3,2.2-3,2.2v8.9h-2.4V966.9H932v2a4.3,4.3,0,0,1,3.6-2.3A5.4,5.4,0,0,1,937.5,966.9Z" fill="#535751"></path><path d="M938.2,966.9h2.5v-3.9h2.4v3.9h4V969h-4v7a1.7,1.7,0,0,0,1.9,2,3.1,3.1,0,0,0,1.5-.5l.9,1.9a5.3,5.3,0,0,1-2.7.8,3.8,3.8,0,0,1-3.9-4.1V969h-2.5Z" fill="#535751"></path><path d="M961.4,971.5v8.3h-2.4v-7.9a2.9,2.9,0,0,0-3.1-3.2c-2.1,0-3.2,2.2-3.2,2.2v8.9h-2.4V958.7h2.4v9.8a4.6,4.6,0,0,1,3.8-1.9A4.7,4.7,0,0,1,961.4,971.5Z" fill="#535751"></path><path d="M132.1,595.3v-7.2h8.5a11.3,11.3,0,0,1,2.6,7.7c0,5.7-4.5,9.7-10.1,9.7s-10.1-4.1-10.1-9.7,2.8-7.2,2.8-7.2l1.7,1.7a7.5,7.5,0,0,0-2.2,5.5c0,4.3,3.7,7.2,7.9,7.2s7.9-3,7.9-7.2a9,9,0,0,0-1.4-5.4h-5.2v4.9Z" fill="#535751"></path><path d="M121.7,584.2v-2.4h21.2v2.4Z" fill="#535751"></path><path d="M136.4,565.4a6.7,6.7,0,1,1-6.8,6.7A6.6,6.6,0,0,1,136.4,565.4Zm0,2.4A4.3,4.3,0,1,0,141,572,4.3,4.3,0,0,0,136.4,567.7Z" fill="#535751"></path><path d="M136.4,549.4a6.5,6.5,0,0,1,6.8,6.3A5,5,0,0,1,141,560h1.9v2.2H121.7v-2.4h9.8a5.1,5.1,0,0,1-1.9-4.2A6.5,6.5,0,0,1,136.4,549.4Zm2.4,10.4A4.6,4.6,0,0,0,141,556a4.6,4.6,0,0,0-9.2,0,4.6,4.6,0,0,0,2.2,3.8Z" fill="#535751"></path><path d="M124.2,545.1a1.6,1.6,0,1,1,1.6,1.6A1.6,1.6,0,0,1,124.2,545.1Zm5.7,1.2v-2.4h12.9v2.4Z" fill="#535751"></path><path d="M134.5,528.9h8.3v2.4h-7.9a2.9,2.9,0,0,0-3.2,3.1c0,2.1,2.2,3.2,2.2,3.2h8.9v2.4H129.9v-2.2h1.8a4.6,4.6,0,0,1-2.2-4A4.7,4.7,0,0,1,134.5,528.9Z" fill="#535751"></path><path d="M139,516.7a5,5,0,0,0,2.1-3.9c0-1.3-.6-2.8-1.6-2.8s-1.7,1-2.1,2.9-1.7,4.7-4.1,4.7-3.7-1.9-3.7-4.8a6.7,6.7,0,0,1,2-4.8l1.6,1.5a4.8,4.8,0,0,0-1.4,3.2c0,1.7.8,2.5,1.7,2.5s1.5-1,2-3.1,1.5-4.6,4.1-4.6,3.8,2.6,3.8,5.1a7.1,7.1,0,0,1-2.7,5.5Z" fill="#535751"></path><path d="M146.8,504.8a3,3,0,0,0,.7-1.5c0-1-.7-1.5-2-2l-2.5-1-13,6v-2.7l10.2-4.5-10.2-3.9v-2.5l17.1,6.8a3.8,3.8,0,0,1,2.6,3.6,4.8,4.8,0,0,1-.9,2.7Z" fill="#535751"></path><path d="M134.5,479.7h8.3V482h-7.9a2.9,2.9,0,0,0-3.2,3.1c0,2.1,2.2,3.2,2.2,3.2h8.9v2.4H129.9v-2.2h1.8a4.6,4.6,0,0,1-2.2-4A4.7,4.7,0,0,1,134.5,479.7Z" fill="#535751"></path><path d="M129.9,477.2v-2.5H126v-2.4h3.9v-4h2.1v4h7a1.7,1.7,0,0,0,2-1.9,3.1,3.1,0,0,0-.5-1.5l1.9-.9a5.3,5.3,0,0,1,.8,2.7,3.8,3.8,0,0,1-4.1,3.9h-7.1v2.5Z" fill="#535751"></path><path d="M134.5,454h8.3v2.4h-7.9a2.9,2.9,0,0,0-3.2,3.1c0,2.1,2.2,3.2,2.2,3.2h8.9v2.4H121.7v-2.4h9.8a4.6,4.6,0,0,1-1.9-3.8A4.7,4.7,0,0,1,134.5,454Z" fill="#535751"></path><path d="M136.5,438.6h.8v10.4a4.4,4.4,0,0,0,3.8-4.5,5,5,0,0,0-1.9-3.9l1.5-1.5a7.2,7.2,0,0,1,2.5,5.4,6.6,6.6,0,0,1-6.8,6.7c-3.8,0-6.8-2.6-6.8-6.5S132.3,438.6,136.5,438.6Zm-1.2,2.3a3.9,3.9,0,0,0-3.5,4,4,4,0,0,0,3.5,4.1Z" fill="#535751"></path><path d="M139,435.1a5,5,0,0,0,2.1-3.9c0-1.3-.6-2.8-1.6-2.8s-1.7,1-2.1,2.9-1.7,4.7-4.1,4.7-3.7-1.9-3.7-4.8a6.7,6.7,0,0,1,2-4.8l1.6,1.5a4.8,4.8,0,0,0-1.4,3.2c0,1.7.8,2.5,1.7,2.5s1.5-1,2-3.1,1.5-4.6,4.1-4.6,3.8,2.6,3.8,5.1a7.1,7.1,0,0,1-2.7,5.5Z" fill="#535751"></path><path d="M124.2,421.6a1.6,1.6,0,1,1,1.6,1.6A1.6,1.6,0,0,1,124.2,421.6Zm5.7,1.2v-2.4h12.9v2.4Z" fill="#535751"></path><path d="M139,415.6a5,5,0,0,0,2.1-3.9c0-1.3-.6-2.8-1.6-2.8s-1.7,1-2.1,2.9-1.7,4.7-4.1,4.7-3.7-1.9-3.7-4.8a6.7,6.7,0,0,1,2-4.8l1.6,1.5a4.8,4.8,0,0,0-1.4,3.2c0,1.7.8,2.5,1.7,2.5s1.5-1,2-3.1,1.5-4.6,4.1-4.6,3.8,2.6,3.8,5.1a7.1,7.1,0,0,1-2.7,5.5Z" fill="#535751"></path><path d="M147.3,391.5c-4.1,2.7-7.5,4.3-12.7,4.3s-8.6-1.6-12.7-4.3l1.2-1.7c3.7,2.4,6.6,3.8,11.5,3.8s7.8-1.4,11.5-3.8Z" fill="#535751"></path><path d="M122.7,373.4l.8-1.2L143.4,385l-.9,1.3Zm4.6,5.9a4.4,4.4,0,1,1-4.3,4.4A4.3,4.3,0,0,1,127.3,379.3Zm0,1.6a2.8,2.8,0,1,0,2.8,2.8A2.8,2.8,0,0,0,127.3,380.9Zm11.6-11a4.4,4.4,0,1,1-4.3,4.4A4.3,4.3,0,0,1,138.9,369.9Zm0,1.6a2.8,2.8,0,1,0,2.8,2.8A2.8,2.8,0,0,0,138.9,371.6Z" fill="#535751"></path><path d="M146.1,368.3c-3.7-2.4-6.6-3.8-11.5-3.8s-7.8,1.4-11.5,3.8l-1.2-1.7c4.1-2.7,7.5-4.3,12.7-4.3s8.6,1.6,12.7,4.3Z" fill="#535751"></path><polyline points="244.5 126.4 244.5 852.4 1480 852.4" fill="none" stroke="#535751" stroke-miterlimit="10" stroke-width="3"></polyline><path d="M523.6,196.8h9.3v2.6h-9.3v10.2h-2.7V187.1h12.6v2.6h-10Z" fill="#535751"></path><path d="M549.9,202.2a8.3,8.3,0,0,1,0,.9H537.9a5,5,0,0,0,5.1,4.3,5.7,5.7,0,0,0,4.4-2.2l1.7,1.8a8.2,8.2,0,0,1-6.1,2.9,7.6,7.6,0,0,1-7.7-7.8c0-4.3,2.9-7.8,7.4-7.8S549.9,197.5,549.9,202.2Zm-2.6-1.4a4.5,4.5,0,0,0-4.6-4,4.6,4.6,0,0,0-4.7,4Z" fill="#535751"></path><path d="M551.7,194.8h2.9v-4.5h2.7v4.5h4.6v2.4h-4.6v8a2,2,0,0,0,2.1,2.3,3.5,3.5,0,0,0,1.7-.6l1,2.2a6.1,6.1,0,0,1-3.1.9,4.3,4.3,0,0,1-4.4-4.6v-8.1h-2.9Z" fill="#535751"></path><path d="M577.3,199.8v9.7h-2.5v-2.1a6.2,6.2,0,0,1-5,2.5c-2.7,0-5.5-1.9-5.5-5.1s2.5-4.9,5.9-4.9a8.3,8.3,0,0,1,4.4,1.2v-.8c0-3.1-2.6-3.5-3.7-3.5a10.2,10.2,0,0,0-4.4,1.2l-1.1-2.2a11,11,0,0,1,5.5-1.5C575.2,194.4,577.3,197.1,577.3,199.8Zm-2.7,5.5v-2.1a7.1,7.1,0,0,0-3.9-1.1c-2.3,0-3.7,1.2-3.7,2.7s1.7,2.7,3.4,2.7A5.7,5.7,0,0,0,574.6,205.3Z" fill="#535751"></path><path d="M581.9,185.3h2.7v24.2h-2.7Z" fill="#535751"></path><path d="M521.5,250.6c-3.1-4.6-4.9-8.5-4.9-14.5s1.8-9.9,4.9-14.5l2,1.4c-2.8,4.2-4.4,7.6-4.4,13.1s1.6,8.9,4.4,13.1Z" fill="#535751"></path><path d="M540.9,223.1h2.7v22.4h-2.7V235.3H529.6v10.2h-2.7V223.1h2.7v9.6h11.2Z" fill="#535751"></path><path d="M563.4,238.1c0,4.4-3.2,7.8-7.2,7.8a5.8,5.8,0,0,1-5-2.5v2.1h-2.5V221.3h2.7v11.2a5.9,5.9,0,0,1,4.8-2.2C560.2,230.4,563.4,233.8,563.4,238.1Zm-11.9,2.7a5.3,5.3,0,0,0,4.4,2.6c3,0,4.9-2.4,4.9-5.3s-2-5.3-4.9-5.3a5.3,5.3,0,0,0-4.4,2.6Z" fill="#535751"></path><path d="M569.8,232.8h9.3v2.6h-9.3v10.2h-2.7V223.1h12.6v2.6h-10Z" fill="#535751"></path><path d="M582.1,249.2c2.8-4.2,4.4-7.6,4.4-13.1s-1.6-8.9-4.4-13.1l2-1.4c3.1,4.6,4.9,8.5,4.9,14.5s-1.8,9.9-4.9,14.5Z" fill="#535751"></path><path d="M751.2,690.4h2.5l8.7,22.4h-2.8l-2.3-6h-9.7l-2.3,6h-2.9Zm-2.6,13.8h7.7l-3.8-10Z" fill="#535751"></path><path d="M775.6,699.8V688.6h2.7v24.2h-2.5v-2.1a5.8,5.8,0,0,1-5,2.5c-4,0-7.2-3.4-7.2-7.8s3.2-7.8,7.2-7.8A5.9,5.9,0,0,1,775.6,699.8Zm0,2.8a5.3,5.3,0,0,0-4.4-2.6c-2.9,0-4.9,2.4-4.9,5.3s1.9,5.3,4.9,5.3a5.3,5.3,0,0,0,4.4-2.6Z" fill="#535751"></path><path d="M783,707.5V698h2.7V707a3.3,3.3,0,0,0,3.6,3.6,4.4,4.4,0,0,0,3.7-2.4V698h2.7v14.8h-2.5v-2.3a5.2,5.2,0,0,1-4.5,2.7A5.4,5.4,0,0,1,783,707.5Z" fill="#535751"></path><path d="M800.2,688.6h2.7v24.2h-2.7Z" fill="#535751"></path><path d="M806.3,698h2.9v-4.5h2.7V698h4.6v2.4h-4.6v8a2,2,0,0,0,2.1,2.3,3.5,3.5,0,0,0,1.7-.6l1,2.2a6.1,6.1,0,0,1-3.1.9,4.3,4.3,0,0,1-4.4-4.6v-8.1h-2.9Z" fill="#535751"></path><path d="M746.7,753.8c-3.1-4.6-4.9-8.5-4.9-14.5s1.8-9.9,4.9-14.5l2,1.4c-2.8,4.2-4.4,7.6-4.4,13.1s1.6,8.9,4.4,13.1Z" fill="#535751"></path><path d="M766,726.4h2.7v22.4H766V738.5H754.8v10.2h-2.7V726.4h2.7V736H766Z" fill="#535751"></path><path d="M788.6,741.4c0,4.4-3.2,7.8-7.2,7.8a5.8,5.8,0,0,1-5-2.5v2.1H774V724.6h2.7v11.2a5.9,5.9,0,0,1,4.8-2.2C785.4,733.6,788.6,737,788.6,741.4Zm-11.9,2.7a5.3,5.3,0,0,0,4.4,2.6c3,0,4.9-2.4,4.9-5.3s-2-5.3-4.9-5.3a5.3,5.3,0,0,0-4.4,2.6Z" fill="#535751"></path><path d="M798.7,726.4h2.5l8.7,22.4h-2.8l-2.3-6h-9.7l-2.3,6h-2.9Zm-2.6,13.8h7.7l-3.8-10Z" fill="#535751"></path><path d="M811.1,752.4c2.8-4.2,4.4-7.6,4.4-13.1s-1.6-8.9-4.4-13.1l2-1.4c3.1,4.6,4.9,8.5,4.9,14.5s-1.8,9.9-4.9,14.5Z" fill="#535751"></path><path d="M432,823.9c36-42,107.8-34.5,225-34.5,144,0,260.6,7,337.5-277.5,75-277.5,198-340.5,450-355.5" fill="none" stroke="#f05776" stroke-miterlimit="10" stroke-width="6"></path><path d="M247.5,508.9c54-66,75-112.5,91.5-172.5s42-139.5,99-169.5c45.3-23.8,124.5-22.5,214.5-1.5s253.5,61.5,330,270,94.5,256.5,145.5,309,84,88.5,316.5,97.5" fill="none" stroke="#6f97cf" stroke-miterlimit="10" stroke-width="6"></path><line x1="229.7" y1="127.8" x2="244.7" y2="127.8" fill="none" stroke="#535751" stroke-miterlimit="10" stroke-width="3"></line><line x1="229.7" y1="272.7" x2="244.7" y2="272.7" fill="none" stroke="#535751" stroke-miterlimit="10" stroke-width="3"></line><line x1="229.7" y1="417.6" x2="244.7" y2="417.6" fill="none" stroke="#535751" stroke-miterlimit="10" stroke-width="3"></line><line x1="229.7" y1="562.5" x2="244.7" y2="562.5" fill="none" stroke="#535751" stroke-miterlimit="10" stroke-width="3"></line><line x1="229.7" y1="707.5" x2="244.7" y2="707.5" fill="none" stroke="#535751" stroke-miterlimit="10" stroke-width="3"></line><line x1="229.7" y1="852.4" x2="244.7" y2="852.4" fill="none" stroke="#535751" stroke-miterlimit="10" stroke-width="3"></line><line x1="244.5" y1="867.4" x2="244.5" y2="852.4" fill="none" stroke="#535751" stroke-miterlimit="10" stroke-width="3"></line><line x1="486.4" y1="867.4" x2="486.4" y2="852.4" fill="none" stroke="#535751" stroke-miterlimit="10" stroke-width="3"></line><line x1="728.3" y1="867.4" x2="728.3" y2="852.4" fill="none" stroke="#535751" stroke-miterlimit="10" stroke-width="3"></line><line x1="970.2" y1="867.4" x2="970.2" y2="852.4" fill="none" stroke="#535751" stroke-miterlimit="10" stroke-width="3"></line><line x1="1212.1" y1="867.4" x2="1212.1" y2="852.4" fill="none" stroke="#535751" stroke-miterlimit="10" stroke-width="3"></line><line x1="1454" y1="867.4" x2="1454" y2="852.4" fill="none" stroke="#535751" stroke-miterlimit="10" stroke-width="3"></line><path d="M1450.8,904a3.6,3.6,0,0,1,1.4-.3,6.2,6.2,0,0,1,6.4,6.4,6.4,6.4,0,1,1-12.8.1,7.8,7.8,0,0,1,1-3.5l6.4-10.7,1.9,1.2Zm-2.7,6.1a4.1,4.1,0,1,0,8.1,0,4.1,4.1,0,1,0-8.1,0Z" fill="#545852"></path><line x1="1212.1" y1="127" x2="1212.1" y2="131" fill="none" stroke="#535751" stroke-miterlimit="10" stroke-width="3"></line><line x1="1212.1" y1="139" x2="1212.1" y2="167.3" fill="none" stroke="#535751" stroke-miterlimit="10" stroke-width="3" stroke-dasharray="8.07 8.07 8.07 8.07"></line><line x1="1212.1" y1="171.3" x2="1212.1" y2="844.9" fill="none" stroke="#535751" stroke-miterlimit="10" stroke-width="3" stroke-dasharray="8.07 8.07 8.07 8.07 8.07 8.07"></line><line x1="1212.1" y1="848.9" x2="1212.1" y2="852.9" fill="none" stroke="#535751" stroke-miterlimit="10" stroke-width="3"></line><rect x="1107.3" y="451.1" width="211.5" height="103.49" fill="#fff" stroke="#535751" stroke-miterlimit="10" stroke-width="3"></rect><path d="M1175.5,483.2c0,6.5-4.6,11.6-11.1,11.6s-11.1-5.1-11.1-11.6,4.6-11.6,11.1-11.6S1175.5,476.7,1175.5,483.2Zm-2.9,0c0-4.8-3.3-9-8.2-9s-8.2,4.3-8.2,9,3.3,9,8.2,9S1172.6,487.9,1172.6,483.2Z" fill="#535751"></path><path d="M1191.4,484.9v9.5h-2.7v-9.1a3.3,3.3,0,0,0-3.6-3.6c-2.4,0-3.7,2.5-3.7,2.5v10.2h-2.7V479.6h2.5v2.1a5.3,5.3,0,0,1,4.5-2.5A5.4,5.4,0,0,1,1191.4,484.9Z" fill="#535751"></path><path d="M1196.4,489.9a5.7,5.7,0,0,0,4.5,2.4c1.5,0,3.2-.6,3.2-1.8s-1.1-1.9-3.4-2.4-5.4-1.9-5.4-4.7,2.1-4.3,5.4-4.3a7.7,7.7,0,0,1,5.5,2.2l-1.8,1.8a5.4,5.4,0,0,0-3.7-1.6c-1.9,0-2.8.9-2.8,1.9s1.2,1.7,3.6,2.2,5.2,1.7,5.2,4.7-3,4.3-5.9,4.3a8.1,8.1,0,0,1-6.3-3.1Z" fill="#535751"></path><path d="M1223.6,487.1a8.3,8.3,0,0,1,0,.9h-11.9a5,5,0,0,0,5.1,4.3,5.7,5.7,0,0,0,4.4-2.2l1.7,1.8a8.2,8.2,0,0,1-6.1,2.9,7.6,7.6,0,0,1-7.7-7.8c0-4.3,2.9-7.8,7.4-7.8S1223.6,482.3,1223.6,487.1Zm-2.6-1.4a4.5,4.5,0,0,0-4.6-4,4.6,4.6,0,0,0-4.7,4Z" fill="#535751"></path><path d="M1225.4,479.6h2.9v-4.5h2.7v4.5h4.6V482H1231v8a2,2,0,0,0,2.1,2.3,3.5,3.5,0,0,0,1.7-.6l1,2.2a6.1,6.1,0,0,1-3.1.9,4.3,4.3,0,0,1-4.4-4.6V482h-2.9Z" fill="#535751"></path><path d="M1261.9,487a7.6,7.6,0,1,1-7.6-7.8A7.6,7.6,0,0,1,1261.9,487Zm-2.7,0a4.9,4.9,0,1,0-4.9,5.3A5,5,0,0,0,1259.2,487Z" fill="#535751"></path><path d="M1263.5,479.6h3.1v-5.1a4.5,4.5,0,0,1,4.5-4.7,6.1,6.1,0,0,1,3.1.9l-1,2.2a3.8,3.8,0,0,0-1.7-.6,2.1,2.1,0,0,0-2.2,2.4v4.9h3.8V482h-3.8v12.4h-2.7V482h-3.1Z" fill="#535751"></path><path d="M1145.1,524.9a5.7,5.7,0,0,0,4.5,2.4c1.5,0,3.2-.6,3.2-1.8s-1.1-1.9-3.4-2.4-5.4-1.9-5.4-4.7,2.1-4.3,5.4-4.3a7.7,7.7,0,0,1,5.5,2.2l-1.8,1.8a5.4,5.4,0,0,0-3.7-1.6c-1.9,0-2.8.9-2.8,1.9s1.2,1.7,3.6,2.2,5.2,1.7,5.2,4.7-3,4.3-5.9,4.3a8.1,8.1,0,0,1-6.3-3.1Z" fill="#535751"></path><path d="M1158.7,533.9a3.4,3.4,0,0,0,1.8.8c1.2,0,1.7-.8,2.3-2.3l1.2-2.9-6.9-14.8h3l5.2,11.7,4.4-11.7h2.9l-7.8,19.6a4.3,4.3,0,0,1-4.1,3,5.5,5.5,0,0,1-3.1-1.1Z" fill="#535751"></path><path d="M1195.5,519.9v9.5h-2.7v-9.1c0-2.4-1.2-3.6-3.2-3.6s-3.2,2.4-3.2,2.4v10.3h-2.7v-9.1c0-2.4-1.2-3.6-3.2-3.6s-3.2,2.4-3.2,2.4v10.3h-2.7V514.6h2.5v2.2a4.5,4.5,0,0,1,4.1-2.6,4.6,4.6,0,0,1,4.6,2.8,4.9,4.9,0,0,1,4.4-2.8C1193.4,514.2,1195.5,516.2,1195.5,519.9Z" fill="#535751"></path><path d="M1202,514.6v2.1a5.8,5.8,0,0,1,5-2.5c4,0,7.2,3.4,7.2,7.8s-3.2,7.8-7.2,7.8a5.9,5.9,0,0,1-4.8-2.2v9.2h-2.7V514.6Zm.2,10.1a5.3,5.3,0,0,0,4.4,2.5c3,0,4.9-2.4,4.9-5.3s-1.9-5.3-4.9-5.3a5.3,5.3,0,0,0-4.4,2.5Z" fill="#535751"></path><path d="M1216,514.6h2.9v-4.5h2.7v4.5h4.6V517h-4.6v8a2,2,0,0,0,2.1,2.3,3.5,3.5,0,0,0,1.7-.6l1,2.2a6.1,6.1,0,0,1-3.1.9,4.3,4.3,0,0,1-4.4-4.6V517H1216Z" fill="#535751"></path><path d="M1243.5,522a7.6,7.6,0,1,1-7.6-7.8A7.6,7.6,0,0,1,1243.5,522Zm-2.7,0a4.9,4.9,0,1,0-4.9,5.3A5,5,0,0,0,1240.8,522Z" fill="#535751"></path><path d="M1267.3,519.9v9.5h-2.7v-9.1c0-2.4-1.2-3.6-3.2-3.6s-3.2,2.4-3.2,2.4v10.3h-2.7v-9.1c0-2.4-1.2-3.6-3.2-3.6s-3.2,2.4-3.2,2.4v10.3h-2.7V514.6h2.5v2.2a4.5,4.5,0,0,1,4.1-2.6,4.6,4.6,0,0,1,4.6,2.8,4.9,4.9,0,0,1,4.4-2.8C1265.3,514.2,1267.3,516.2,1267.3,519.9Z" fill="#535751"></path><path d="M1272.3,524.9a5.7,5.7,0,0,0,4.5,2.4c1.5,0,3.2-.6,3.2-1.8s-1.1-1.9-3.4-2.4-5.4-1.9-5.4-4.7,2.1-4.3,5.4-4.3a7.7,7.7,0,0,1,5.5,2.2l-1.8,1.8a5.4,5.4,0,0,0-3.7-1.6c-1.9,0-2.8.9-2.8,1.9s1.2,1.7,3.6,2.2,5.2,1.7,5.2,4.7-3,4.3-5.9,4.3a8.1,8.1,0,0,1-6.3-3.1Z" fill="#535751"></path></svg> 